<svg xmlns="http://www.w3.org/2000/svg" width="30" height="30" viewBox="0 0 30 30">
    <g fill="#50D6C9" fill-rule="evenodd" transform="translate(1.5 1.5)">
        <path fill-rule="nonzero" d="M25.265 21.497h-1.116v-8.18c-.004-4.006-3.251-7.254-7.258-7.258h-5.265V4.947h5.265c4.621.005 8.367 3.749 8.374 8.37v8.18z"/>
        <path fill-rule="nonzero" d="M15.366 10.729L10.137 5.503 15.366 0.278 16.152 1.064 11.713 5.503 16.152 9.942z"/>
        <circle cx="24.522" cy="21.497" r="2.382"/>
        <path fill-rule="nonzero" d="M15.648 22.053h-5.265c-4.62-.007-8.363-3.75-8.37-8.37v-8.2h1.112v8.2c.004 4.006 3.251 7.254 7.258 7.258h5.265v1.112z"/>
        <path fill-rule="nonzero" d="M11.912 26.726L11.126 25.936 15.565 21.497 11.126 17.058 11.912 16.271 17.137 21.497z"/>
        <circle cx="2.478" cy="5.483" r="2.382"/>
    </g>
</svg>